<?xml version="1.0" standalone="no"?>
<!DOCTYPE svg PUBLIC "-//W3C//DTD SVG 20010904//EN"
 "http://www.w3.org/TR/2001/REC-SVG-20010904/DTD/svg10.dtd">
<svg version="1.0" xmlns="http://www.w3.org/2000/svg" viewBox="0 0 800 280"
 preserveAspectRatio="xMidYMid meet">

<g transform="translate(0,550) scale(0.1,-0.1)"
fill="currentColor" stroke="none">
<path d="M2959 5210 c-45 -13 -78 -41 -109 -91 l-30 -49 -1132 0 c-1106 0
-1134 -1 -1165 -20 -41 -25 -58 -57 -77 -153 -31 -151 -37 -323 -34 -1020 l3
-689 37 -33 c20 -19 51 -36 70 -39 33 -5 588 -42 1073 -71 138 -8 274 -17 303
-19 l52 -5 0 82 c1 187 37 295 128 378 99 90 194 123 337 117 82 -3 101 -8
167 -40 93 -47 162 -114 202 -198 28 -61 31 -74 34 -202 l4 -138 1329 0 1329
0 0 113 c0 170 29 253 117 340 27 27 80 64 121 85 62 30 86 36 159 40 96 5
175 -9 243 -43 71 -36 148 -111 183 -179 29 -57 31 -69 34 -186 2 -69 6 -135
9 -147 l4 -23 423 0 c463 0 465 0 510 61 36 50 77 302 77 484 0 115 -3 132
-74 425 -78 320 -128 505 -171 629 -14 41 -25 76 -25 78 0 2 73 3 163 3 l163
0 47 -30 46 -29 3 -98 c3 -94 4 -98 26 -101 45 -7 52 11 52 137 0 64 -4 121
-8 126 -4 6 -43 32 -88 58 l-81 47 -185 0 -184 0 -30 62 c-34 75 -93 141 -149
171 -40 22 -42 22 -796 25 l-756 2 -21 38 c-27 48 -58 77 -104 97 -33 13 -164
15 -1120 14 -596 0 -1095 -4 -1109 -9z m-1209 -560 l0 -310 -530 0 -530 0 0
310 0 310 530 0 530 0 0 -310z m1160 0 l0 -310 -535 0 -535 0 0 310 0 310 535
0 535 0 0 -310z m1160 0 l0 -310 -535 0 -535 0 0 310 0 310 535 0 535 0 0
-310z m1150 0 l0 -310 -530 0 -530 0 0 310 0 310 530 0 530 0 0 -310z m1160 0
l0 -310 -530 0 -530 0 0 310 0 310 530 0 530 0 0 -310z m402 285 c73 -26 130
-83 181 -182 91 -176 128 -338 162 -705 l7 -68 -278 0 c-244 0 -280 2 -296 17
-17 15 -18 43 -18 474 0 417 1 459 17 475 14 14 30 16 97 11 45 -3 102 -13
128 -22z"/>
<path d="M2314 3500 c-278 -58 -383 -409 -183 -609 56 -55 119 -87 202 -102
155 -29 316 59 385 210 22 47 26 71 26 146 1 77 -3 98 -26 147 -72 154 -243
242 -404 208z m164 -179 c68 -35 105 -97 104 -177 -1 -130 -112 -215 -247
-190 -49 9 -121 77 -135 125 -29 104 10 194 105 244 42 22 127 21 173 -2z"/>
<path d="M5822 3495 c-110 -31 -192 -100 -241 -204 -22 -48 -26 -69 -26 -146
0 -75 5 -99 26 -145 32 -69 75 -119 138 -159 218 -140 509 -9 550 249 26 159
-57 313 -204 381 -76 36 -169 45 -243 24z m195 -181 c15 -11 41 -37 57 -58 28
-34 31 -44 31 -110 0 -64 -3 -77 -27 -109 -46 -59 -85 -81 -153 -85 -49 -3
-68 1 -105 20 -132 71 -139 258 -12 339 43 28 53 30 114 27 48 -3 75 -9 95
-24z"/>
</g>
</svg>
