<?xml version="1.0" standalone="no"?>
<!DOCTYPE svg PUBLIC "-//W3C//DTD SVG 20010904//EN"
 "http://www.w3.org/TR/2001/REC-SVG-20010904/DTD/svg10.dtd">
<svg version="1.0" xmlns="http://www.w3.org/2000/svg"
 width="100pt" height="155pt" viewBox="0 0 300 155"
 preserveAspectRatio="xMidYMid meet">

<g transform="translate(300,155) scale(-0.1,-0.1)"
fill="currentColor" stroke="none">
<path d="M1288 1534 c-55 -29 -58 -49 -58 -334 l0 -260 -45 0 -45 0 0 288 c0
211 -3 291 -12 300 -9 9 -68 12 -205 12 -222 0 -248 -6 -356 -84 -148 -105
-331 -361 -477 -669 -96 -203 -110 -280 -66 -372 47 -100 120 -141 268 -151
l95 -7 7 43 c21 133 135 237 272 248 149 12 282 -87 315 -234 l12 -54 581 2
580 3 8 44 c17 101 109 205 207 232 173 49 341 -51 382 -227 l12 -51 39 9 c82
18 132 60 170 143 20 44 23 65 22 175 0 81 -6 149 -17 193 -14 57 -17 122 -17
382 l0 315 -29 32 -29 33 -794 2 c-688 2 -797 0 -820 -13z m-238 -349 l0 -245
-375 0 c-206 0 -375 2 -375 5 0 10 84 140 139 215 100 137 196 225 278 255 26
9 85 14 186 14 l147 1 0 -245z m-3 -371 c9 -23 -15 -34 -78 -34 -38 0 -61 5
-69 15 -21 25 -1 35 71 35 55 0 71 -3 76 -16z"/>
<path d="M607 486 c-55 -20 -103 -61 -134 -114 -24 -40 -28 -58 -28 -122 0
-64 4 -82 28 -123 103 -175 348 -162 443 23 29 58 25 153 -11 218 -58 107
-186 158 -298 118z m151 -126 c34 -21 62 -72 62 -112 0 -37 -34 -90 -71 -110
-94 -51 -198 21 -186 129 10 95 112 143 195 93z"/>
<path d="M2355 481 c-50 -23 -109 -84 -130 -133 -48 -116 7 -258 121 -314 46
-22 64 -26 123 -22 88 5 152 42 196 112 27 44 30 58 30 131 0 73 -3 87 -30
131 -45 72 -109 108 -199 112 -54 2 -81 -2 -111 -17z m191 -132 c100 -94 -1
-260 -132 -217 -72 24 -106 117 -69 188 35 68 143 84 201 29z"/>
</g>
</svg>
