<?xml version="1.0" standalone="no"?>
<!DOCTYPE svg PUBLIC "-//W3C//DTD SVG 20010904//EN"
 "http://www.w3.org/TR/2001/REC-SVG-20010904/DTD/svg10.dtd">
<svg version="1.0" xmlns="http://www.w3.org/2000/svg" viewBox="0 140 512 212"
 preserveAspectRatio="xMidYMid meet">

<g transform="translate(0,512) scale(0.1,-0.1)"
fill="currentColor" stroke="none">
<path d="M1033 3448 l2 -33 -165 -13 c-91 -8 -169 -18 -175 -24 -7 -6 -1 -16
17 -29 l28 -21 -98 -75 c-141 -111 -290 -251 -313 -294 -20 -40 -26 -127 -10
-157 9 -17 -9 -128 -25 -153 -4 -7 -8 -38 -9 -69 -1 -44 -7 -66 -34 -108 -19
-29 -30 -59 -27 -68 3 -8 1 -24 -5 -35 -7 -14 -6 -43 6 -105 21 -114 41 -162
75 -179 36 -18 385 -87 401 -79 3 2 9 38 12 80 16 219 208 408 430 421 144 9
255 -29 359 -126 75 -69 133 -183 148 -290 6 -41 8 -82 5 -91 -5 -16 10 -18
187 -24 106 -3 543 -8 971 -10 l777 -5 0 74 c0 350 360 578 679 428 72 -34
179 -140 214 -213 38 -79 60 -191 52 -267 l-7 -62 84 5 c117 7 148 13 148 28
0 7 21 19 47 27 66 20 82 47 94 158 9 82 8 95 -7 112 -9 10 -14 24 -11 32 8
22 -21 147 -48 202 -16 33 -25 72 -27 117 -4 78 -20 101 -88 130 -111 48 -542
147 -817 188 l-203 30 -257 136 c-503 268 -590 302 -824 323 -268 24 -626 33
-1024 24 -399 -9 -400 -9 -450 13 -27 12 -64 25 -82 28 -30 7 -31 6 -30 -26z
m1195 -104 l30 -6 7 -147 c3 -80 7 -168 8 -196 l2 -50 -90 3 c-194 6 -341 24
-485 60 l-145 37 -3 99 c-3 98 -2 100 30 147 l33 48 115 4 c241 6 469 7 498 1z
m522 -33 c81 -17 127 -36 319 -132 211 -106 222 -114 195 -123 -16 -5 -32 -14
-36 -20 -14 -20 -8 -101 7 -124 l16 -22 -58 5 c-32 3 -204 12 -383 21 -179 8
-328 19 -331 22 -7 8 -89 369 -89 391 0 20 234 8 360 -18z m-1361 -93 c-34
-51 -63 -95 -65 -97 -7 -8 -197 72 -221 93 -31 27 -26 51 11 66 31 11 175 27
269 29 l68 1 -62 -92z m-652 -274 c124 -10 114 -20 -106 -117 -96 -43 -178
-77 -184 -77 -5 0 -18 11 -29 25 -11 14 -30 25 -43 25 -26 0 -35 17 -35 66 0
44 15 73 43 83 22 9 212 6 354 -5z m3775 -199 c115 -25 240 -64 260 -81 21
-20 24 -62 4 -89 -11 -15 -21 -17 -60 -12 -28 4 -54 2 -64 -4 -15 -9 -29 -4
-77 26 -32 21 -118 66 -192 101 -73 35 -133 69 -133 75 0 15 159 5 262 -16z
m269 -376 c50 -17 80 -48 77 -79 -2 -19 -10 -26 -32 -28 -53 -6 -73 5 -91 52
-16 42 -14 66 4 66 4 0 23 -5 42 -11z m-4513 -13 c30 -16 68 -54 60 -61 -2 -2
-24 -1 -49 3 -40 7 -44 10 -47 40 -4 36 -1 37 36 18z"/>
<path d="M3961 2444 c-123 -33 -209 -105 -264 -222 -29 -61 -32 -76 -32 -162
0 -86 3 -101 32 -162 59 -126 161 -204 296 -229 158 -29 327 50 411 193 15 25
34 79 42 119 45 217 -97 428 -315 469 -70 13 -104 12 -170 -6z m199 -130 c105
-31 190 -149 190 -264 0 -114 -83 -229 -189 -265 -105 -35 -218 -7 -292 72
-61 64 -74 97 -74 193 0 75 3 91 27 132 73 123 200 173 338 132z"/>
<path d="M4045 2280 c-9 -15 4 -138 16 -145 15 -10 30 45 27 99 -2 38 -7 52
-20 54 -9 2 -19 -2 -23 -8z"/>
<path d="M4135 2248 c-2 -7 -6 -34 -10 -60 -5 -40 -3 -48 10 -48 24 0 85 43
85 60 0 8 -16 25 -35 38 -40 26 -44 26 -50 10z"/>
<path d="M3927 2223 c-20 -14 -37 -30 -37 -34 0 -5 23 -20 51 -35 39 -19 54
-23 59 -14 8 13 -16 96 -29 105 -4 2 -24 -8 -44 -22z"/>
<path d="M3833 2134 c-8 -20 3 -28 61 -48 61 -20 86 -20 86 -2 0 15 -6 18 -88
47 -47 16 -54 16 -59 3z"/>
<path d="M4229 2131 c-26 -10 -57 -25 -69 -34 -20 -14 -21 -17 -7 -23 14 -5
147 32 147 41 0 11 -13 35 -19 35 -3 -1 -27 -9 -52 -19z"/>
<path d="M4196 2031 c-16 -3 -31 -11 -33 -17 -4 -11 69 -74 85 -74 11 0 32 53
32 81 0 20 -25 23 -84 10z"/>
<path d="M3850 2010 c0 -20 26 -80 35 -80 14 0 75 65 75 81 0 16 -8 19 -55 19
-49 0 -55 -2 -55 -20z"/>
<path d="M3999 1980 c-19 -11 -79 -101 -79 -118 0 -7 8 -12 18 -12 11 0 31 21
51 54 34 58 39 92 10 76z"/>
<path d="M4110 1967 c0 -19 73 -116 88 -117 29 0 22 32 -18 80 -40 48 -70 64
-70 37z"/>
<path d="M4035 1904 c-27 -64 -22 -74 35 -74 28 0 50 4 50 10 0 21 -45 100
-57 100 -7 0 -20 -16 -28 -36z"/>
<path d="M1080 2426 c-117 -31 -217 -116 -268 -223 -24 -52 -27 -70 -27 -163
0 -99 2 -110 33 -172 56 -114 165 -196 290 -219 169 -32 354 67 430 229 24 50
27 69 27 162 0 93 -3 111 -27 163 -82 174 -282 271 -458 223z m226 -144 c104
-53 158 -139 158 -252 0 -112 -53 -197 -158 -253 -59 -31 -184 -31 -243 1 -99
52 -155 143 -155 251 1 129 66 221 191 268 50 19 156 11 207 -15z"/>
<path d="M1160 2209 c0 -67 16 -112 31 -88 5 8 9 44 9 82 0 60 -2 67 -20 67
-18 0 -20 -7 -20 -61z"/>
<path d="M1255 2230 c-3 -5 -9 -32 -12 -60 -4 -39 -3 -50 8 -50 17 0 89 47 89
59 0 21 -75 67 -85 51z"/>
<path d="M1041 2202 c-40 -33 -37 -44 21 -73 54 -28 67 -15 47 48 -8 25 -19
48 -25 50 -5 2 -25 -10 -43 -25z"/>
<path d="M956 2123 c-3 -4 -6 -14 -6 -23 0 -12 17 -22 60 -33 33 -10 67 -17
75 -17 19 0 19 14 1 29 -19 16 -123 51 -130 44z"/>
<path d="M1335 2108 c-53 -21 -75 -35 -75 -49 0 -14 31 -11 86 7 64 22 78 33
63 50 -14 17 -11 17 -74 -8z"/>
<path d="M1316 2011 c-16 -3 -31 -11 -33 -17 -4 -11 66 -74 81 -74 9 0 36 65
36 85 0 16 -29 18 -84 6z"/>
<path d="M960 2001 c0 -9 30 -83 36 -90 7 -7 84 72 84 86 0 9 -18 13 -60 13
-33 0 -60 -4 -60 -9z"/>
<path d="M1118 1960 c-24 -14 -90 -109 -83 -120 13 -20 35 -8 64 33 26 38 50
98 40 97 -2 0 -11 -5 -21 -10z"/>
<path d="M1230 1950 c0 -11 17 -43 37 -71 35 -46 61 -59 70 -33 4 12 -58 91
-88 112 -17 12 -19 11 -19 -8z"/>
<path d="M1149 1875 c-11 -25 -17 -50 -14 -55 7 -11 88 -14 98 -4 8 9 -41 104
-54 104 -5 0 -19 -20 -30 -45z"/>
</g>
</svg>
