<?xml version="1.0" standalone="no"?>
<!DOCTYPE svg PUBLIC "-//W3C//DTD SVG 20010904//EN"
 "http://www.w3.org/TR/2001/REC-SVG-20010904/DTD/svg10.dtd">
<svg version="1.0" xmlns="http://www.w3.org/2000/svg"
  viewBox="0 0 1000 500"
 preserveAspectRatio="xMidYMid meet">

<g transform="translate(0.000000,640.000000) scale(0.100000,-0.100000)"
fill="currentColor" stroke="none">
<path d="M3659 6584 c-200 -36 -423 -153 -658 -346 -223 -182 -529 -498 -1048
-1081 -496 -556 -622 -686 -702 -717 -96 -37 -233 -110 -331 -175 -299 -199
-486 -453 -558 -760 -15 -60 -17 -141 -17 -585 0 -560 4 -610 54 -717 66 -138
178 -185 493 -205 98 -6 181 -9 185 -5 3 4 1 30 -5 58 -17 71 -15 289 3 374
19 89 89 232 155 312 122 150 319 275 516 328 94 26 255 31 354 11 323 -66
563 -276 685 -601 51 -135 66 -316 39 -454 l-7 -34 1443 6 c794 4 1731 7 2082
7 l639 0 -8 23 c-4 12 -8 112 -8 222 1 192 2 203 27 267 51 128 180 294 294
378 67 50 206 125 280 151 254 88 504 57 757 -94 209 -125 333 -287 394 -515
24 -92 25 -105 19 -266 l-6 -169 148 6 c331 13 531 75 648 199 55 58 84 111
111 203 17 56 18 168 21 1810 3 1801 1 1914 -36 2027 -50 152 -171 263 -339
313 -158 47 -50 45 -2887 44 -2211 -1 -2674 -3 -2737 -15z m449 -810 c47 -19
88 -58 113 -106 19 -36 19 -73 17 -1255 l-3 -1218 -185 0 -185 0 -3 443 c-1
285 -6 442 -12 442 -6 0 -133 -62 -283 -137 l-272 -138 -695 0 -695 0 -47 28
c-69 40 -102 100 -96 176 3 45 11 68 31 95 16 20 370 400 788 845 649 691 767
812 802 825 63 22 671 23 725 0z m1600 0 c47 -19 88 -58 113 -106 18 -36 19
-70 19 -873 0 -812 -1 -837 -20 -874 -27 -54 -84 -98 -142 -111 -30 -6 -235
-10 -537 -10 -542 0 -560 2 -618 62 -67 71 -63 10 -63 933 0 908 -2 871 56
929 67 67 54 66 632 66 450 0 528 -2 560 -16z m1600 0 c47 -19 88 -58 113
-106 18 -36 19 -70 19 -873 0 -812 -1 -837 -20 -874 -27 -54 -84 -98 -142
-111 -30 -6 -235 -10 -537 -10 -542 0 -560 2 -618 62 -67 71 -63 10 -63 933 0
908 -2 871 56 929 67 67 54 66 632 66 450 0 528 -2 560 -16z m1600 0 c47 -19
88 -58 113 -106 18 -36 19 -70 19 -873 0 -812 -1 -837 -20 -874 -27 -54 -84
-98 -142 -111 -30 -6 -235 -10 -537 -10 -542 0 -560 2 -618 62 -67 71 -63 10
-63 933 0 908 -2 871 56 929 67 67 54 66 632 66 450 0 528 -2 560 -16z m-7471
-2035 c-14 -113 -106 -246 -225 -325 -64 -43 -184 -89 -258 -99 -27 -3 -59 -8
-71 -11 -21 -4 -23 -1 -23 33 1 94 51 234 111 307 40 48 128 91 217 106 76 12
232 37 246 39 5 1 6 -22 3 -50z m-407 -953 c0 -3 -22 -47 -48 -98 -27 -52 -58
-126 -71 -165 l-23 -72 -25 16 c-53 35 -103 165 -103 270 l0 53 135 0 c74 0
135 -2 135 -4z m5825 -18 c-25 -78 -55 -214 -60 -280 l-7 -78 -1879 0 -1879 0
0 53 c0 91 -23 200 -65 310 -7 16 90 17 1945 17 l1952 0 -7 -22z m2382 -55
c-12 -166 -91 -247 -278 -287 l-26 -6 -6 93 c-4 50 -16 124 -27 162 -12 39
-24 80 -27 93 l-5 22 187 0 188 0 -6 -77z"/>
<path d="M1805 2985 c-157 -30 -282 -94 -401 -208 -210 -198 -293 -462 -235
-742 90 -438 539 -719 972 -610 35 9 111 39 168 67 90 44 117 64 196 142 95
95 144 167 190 281 119 298 34 649 -212 875 -186 170 -433 241 -678 195z"/>
<path d="M7705 2985 c-157 -30 -282 -94 -401 -208 -210 -198 -293 -462 -235
-742 90 -438 539 -719 972 -610 35 9 111 39 168 67 90 44 117 64 196 142 95
95 144 167 190 281 119 298 34 649 -212 875 -186 170 -433 241 -678 195z"/>
</g>
</svg>
